<svg width="24" height="25" viewBox="0 0 24 25" fill="none" xmlns="http://www.w3.org/2000/svg">
<path d="M15 9.2076H17V11.2076H15V9.2076ZM17 5.2076H15V7.2076H17V5.2076ZM11 15.2076H13V13.2076H11V15.2076ZM13 5.2076H11V7.2076H13V5.2076ZM11 11.2076H13V9.2076H11V11.2076ZM9 5.2076H7V7.2076H9V5.2076ZM9 9.2076H7V11.2076H9V9.2076ZM14.55 21.2076H13V17.7076H11V21.2076H5V3.2076H19V11.2376C19.71 11.2976 20.39 11.5176 21 11.8376V1.2076H3V23.2076H15.91C15.5 22.6476 15 21.9676 14.55 21.2076ZM7 19.2076H9V17.2076H7V19.2076ZM9 13.2076H7V15.2076H9V13.2076ZM22 16.7076C22 19.3076 18.5 23.2076 18.5 23.2076C18.5 23.2076 15 19.3076 15 16.7076C15 14.8076 16.6 13.2076 18.5 13.2076C20.4 13.2076 22 14.8076 22 16.7076ZM19.7 16.8076C19.7 16.2076 19.1 15.6076 18.5 15.6076C17.9 15.6076 17.3 16.1076 17.3 16.8076C17.3 17.4076 17.8 18.0076 18.5 18.0076C19.2 18.0076 19.8 17.4076 19.7 16.8076Z" fill="#5F6D7E"/>
</svg>
