<svg width="24" height="24" viewBox="0 0 24 24" fill="none" xmlns="http://www.w3.org/2000/svg">
<path d="M12 18C11.0667 18 10.175 18.146 9.325 18.438C8.475 18.73 7.7 19.1673 7 19.75V20H17V19.75C16.3 19.1667 15.525 18.729 14.675 18.437C13.825 18.145 12.9333 17.9993 12 18ZM5 18.85C5.9 17.9667 6.946 17.271 8.138 16.763C9.33 16.255 10.6173 16.0007 12 16C13.3833 16 14.671 16.2543 15.863 16.763C17.055 17.2717 18.1007 17.9673 19 18.85V6H5V18.85ZM12 14C11.0333 14 10.2083 13.6583 9.525 12.975C8.84167 12.2917 8.5 11.4667 8.5 10.5C8.5 9.53333 8.84167 8.70833 9.525 8.025C10.2083 7.34167 11.0333 7 12 7C12.9667 7 13.7917 7.34167 14.475 8.025C15.1583 8.70833 15.5 9.53333 15.5 10.5C15.5 11.4667 15.1583 12.2917 14.475 12.975C13.7917 13.6583 12.9667 14 12 14ZM12 12C12.4167 12 12.771 11.854 13.063 11.562C13.355 11.27 13.5007 10.916 13.5 10.5C13.5 10.0833 13.354 9.729 13.062 9.437C12.77 9.145 12.416 8.99933 12 9C11.5833 9 11.229 9.146 10.937 9.438C10.645 9.73 10.4993 10.084 10.5 10.5C10.5 10.9167 10.646 11.271 10.938 11.563C11.23 11.855 11.584 12.0007 12 12ZM5 22C4.45 22 3.979 21.804 3.587 21.412C3.195 21.02 2.99934 20.5493 3 20V6C3 5.45 3.196 4.979 3.588 4.587C3.98 4.195 4.45067 3.99933 5 4H6V2H8V4H16V2H18V4H19C19.55 4 20.021 4.196 20.413 4.588C20.805 4.98 21.0007 5.45067 21 6V20C21 20.55 20.804 21.021 20.412 21.413C20.02 21.805 19.5493 22.0007 19 22H5ZM12 20H17H7H12Z" fill="#5F6D7E"/>
</svg>
