<svg width="17" height="18" viewBox="0 0 17 18" fill="none" xmlns="http://www.w3.org/2000/svg">
<path d="M12.1667 14.8333H10.5C10.2639 14.8333 10.0658 14.7533 9.90583 14.5933C9.74583 14.4333 9.66611 14.2356 9.66667 14C9.66667 13.7639 9.74667 13.5658 9.90667 13.4058C10.0667 13.2458 10.2644 13.1661 10.5 13.1667H12.1667V11.5C12.1667 11.2639 12.2467 11.0658 12.4067 10.9058C12.5667 10.7458 12.7644 10.6661 13 10.6667C13.2361 10.6667 13.4342 10.7467 13.5942 10.9067C13.7542 11.0667 13.8339 11.2644 13.8333 11.5V13.1667H15.5C15.7361 13.1667 15.9342 13.2467 16.0942 13.4067C16.2542 13.5667 16.3339 13.7644 16.3333 14C16.3333 14.2361 16.2533 14.4342 16.0933 14.5942C15.9333 14.7542 15.7356 14.8339 15.5 14.8333H13.8333V16.5C13.8333 16.7361 13.7533 16.9342 13.5933 17.0942C13.4333 17.2542 13.2356 17.3339 13 17.3333C12.7639 17.3333 12.5658 17.2533 12.4058 17.0933C12.2458 16.9333 12.1661 16.7356 12.1667 16.5V14.8333ZM2.16667 15.6667C1.70833 15.6667 1.31583 15.5033 0.989168 15.1767C0.662501 14.85 0.499446 14.4578 0.500001 14V4C0.500001 3.54167 0.663335 3.14917 0.990001 2.8225C1.31667 2.49583 1.70889 2.33278 2.16667 2.33333H3V1.5C3 1.26389 3.08 1.06583 3.24 0.905834C3.4 0.745834 3.59778 0.666111 3.83333 0.666667C4.06945 0.666667 4.2675 0.746667 4.4275 0.906667C4.5875 1.06667 4.66722 1.26444 4.66667 1.5V2.33333H9.66667V1.5C9.66667 1.26389 9.74667 1.06583 9.90667 0.905834C10.0667 0.745834 10.2644 0.666111 10.5 0.666667C10.7361 0.666667 10.9342 0.746667 11.0942 0.906667C11.2542 1.06667 11.3339 1.26444 11.3333 1.5V2.33333H12.1667C12.625 2.33333 13.0175 2.49667 13.3442 2.82333C13.6708 3.15 13.8339 3.54222 13.8333 4V9.08333C13.5556 9.04167 13.2778 9.02083 13 9.02083C12.7222 9.02083 12.4444 9.04167 12.1667 9.08333V7.33333H2.16667V14H8C8 14.2778 8.02083 14.5556 8.0625 14.8333C8.10417 15.1111 8.18056 15.3889 8.29167 15.6667H2.16667ZM2.16667 5.66667H12.1667V4H2.16667V5.66667Z" fill="white"/>
</svg>
