<svg width="13" height="12" viewBox="0 0 13 12" fill="none" xmlns="http://www.w3.org/2000/svg">
<path d="M5.625 8.625L10.0313 4.21875L9.15625 3.34375L5.625 6.875L3.84375 5.09375L2.96875 5.96875L5.625 8.625ZM2.125 11.625C1.78125 11.625 1.48688 11.5025 1.24188 11.2575C0.996876 11.0125 0.874584 10.7183 0.875001 10.375V1.625C0.875001 1.28125 0.997501 0.986876 1.2425 0.741876C1.4875 0.496876 1.78167 0.374584 2.125 0.375001H10.875C11.2188 0.375001 11.5131 0.497501 11.7581 0.742501C12.0031 0.987501 12.1254 1.28167 12.125 1.625V10.375C12.125 10.7188 12.0025 11.0131 11.7575 11.2581C11.5125 11.5031 11.2183 11.6254 10.875 11.625H2.125ZM2.125 10.375H10.875V1.625H2.125V10.375Z" fill="white"/>
</svg>
