<svg width="24" height="24" viewBox="0 0 24 24" fill="none" xmlns="http://www.w3.org/2000/svg">
<path d="M4 11C3.71667 11 3.479 10.904 3.287 10.712C3.095 10.52 2.99934 10.2827 3 10V4C3 3.71667 3.096 3.479 3.288 3.287C3.48 3.095 3.71734 2.99934 4 3H10C10.2833 3 10.521 3.096 10.713 3.288C10.905 3.48 11.0007 3.71734 11 4V10C11 10.2833 10.904 10.521 10.712 10.713C10.52 10.905 10.2827 11.0007 10 11H4ZM14 11C13.7167 11 13.479 10.904 13.287 10.712C13.095 10.52 12.9993 10.2827 13 10V4C13 3.71667 13.096 3.479 13.288 3.287C13.48 3.095 13.7173 2.99934 14 3H20C20.2833 3 20.521 3.096 20.713 3.288C20.905 3.48 21.0007 3.71734 21 4V10C21 10.2833 20.904 10.521 20.712 10.713C20.52 10.905 20.2827 11.0007 20 11H14ZM4 21C3.71667 21 3.479 20.904 3.287 20.712C3.095 20.52 2.99934 20.2827 3 20V14C3 13.7167 3.096 13.479 3.288 13.287C3.48 13.095 3.71734 12.9993 4 13H10C10.2833 13 10.521 13.096 10.713 13.288C10.905 13.48 11.0007 13.7173 11 14V20C11 20.2833 10.904 20.521 10.712 20.713C10.52 20.905 10.2827 21.0007 10 21H4ZM17 21C16.7167 21 16.479 20.904 16.287 20.712C16.095 20.52 15.9993 20.2827 16 20V18H13.975C13.6917 18 13.4583 17.904 13.275 17.712C13.0917 17.52 13 17.2827 13 17C13 16.7167 13.096 16.479 13.288 16.287C13.48 16.095 13.7173 15.9993 14 16H16V13.975C16 13.6917 16.096 13.4583 16.288 13.275C16.48 13.0917 16.7173 13 17 13C17.2833 13 17.521 13.096 17.713 13.288C17.905 13.48 18.0007 13.7173 18 14V16H20.025C20.3083 16 20.5417 16.096 20.725 16.288C20.9083 16.48 21 16.7173 21 17C21 17.2833 20.904 17.521 20.712 17.713C20.52 17.905 20.2827 18.0007 20 18H18V20.025C18 20.3083 17.904 20.5417 17.712 20.725C17.52 20.9083 17.2827 21 17 21ZM15 5V9H19V5H15ZM5 5V9H9V5H5ZM5 15V19H9V15H5Z" fill="#5F6D7E"/>
</svg>
