<svg width="24" height="24" viewBox="0 0 24 24" fill="none" xmlns="http://www.w3.org/2000/svg">
<path d="M11.6872 11.6874H12.3122M11.6872 12.3124H12.3122M5.85388 11.6874H6.47888M5.85388 12.3124H6.47888M17.5205 11.6874H18.1455M17.5205 12.3124H18.1455M12.8333 12C12.8333 12.4602 12.4602 12.8333 11.9999 12.8333C11.5397 12.8333 11.1666 12.4602 11.1666 12C11.1666 11.5398 11.5397 11.1667 11.9999 11.1667C12.4602 11.1667 12.8333 11.5398 12.8333 12ZM6.99992 12C6.99992 12.4602 6.62682 12.8333 6.16659 12.8333C5.70635 12.8333 5.33325 12.4602 5.33325 12C5.33325 11.5398 5.70635 11.1667 6.16659 11.1667C6.62682 11.1667 6.99992 11.5398 6.99992 12ZM18.6666 12C18.6666 12.4602 18.2935 12.8333 17.8333 12.8333C17.373 12.8333 16.9999 12.4602 16.9999 12C16.9999 11.5398 17.373 11.1667 17.8333 11.1667C18.2935 11.1667 18.6666 11.5398 18.6666 12Z" stroke="#5F6D7E" stroke-width="1.5" stroke-linecap="round"/>
</svg>
