<svg width="24" height="24" viewBox="0 0 24 24" fill="none" xmlns="http://www.w3.org/2000/svg">
<path d="M15.2 23.2H21.6C22.0244 23.2 22.4314 23.0314 22.7314 22.7314C23.0315 22.4313 23.2 22.0243 23.2 21.6V2.4C23.2 1.97566 23.0315 1.56869 22.7314 1.26863C22.4314 0.968574 22.0244 0.800003 21.6 0.800003H15.2C14.7757 0.800003 14.3687 0.968574 14.0687 1.26863C13.7686 1.56869 13.6 1.97566 13.6 2.4V21.6C13.6 22.0243 13.7686 22.4313 14.0687 22.7314C14.3687 23.0314 14.7757 23.2 15.2 23.2ZM15.2 23.2H6.40005M10.4 18.4V23.2M13.6 8.8H23.2M16 18.4H20.8M2.40005 5.6H13.6V18.4H2.40005C1.9757 18.4 1.56874 18.2314 1.26868 17.9314C0.96862 17.6313 0.800049 17.2243 0.800049 16.8V7.2C0.800049 6.77566 0.96862 6.36869 1.26868 6.06863C1.56874 5.76857 1.9757 5.6 2.40005 5.6Z" stroke="currentColor" stroke-width="1.6"/>
</svg>
