<svg width="20" height="18" viewBox="0 0 20 18" fill="none" xmlns="http://www.w3.org/2000/svg">
<path d="M13 8H14.5V6.75H16V5.25H14.5V4H13V8ZM4 6.75H12V5.25H4V6.75ZM5.5 12H7V8H5.5V9.25H4V10.75H5.5V12ZM8 10.75H16V9.25H8V10.75ZM7 18C6.71667 18 6.479 17.904 6.287 17.712C6.095 17.52 5.99934 17.2827 6 17V16H2C1.45 16 0.979002 15.804 0.587002 15.412C0.195002 15.02 -0.000664969 14.5493 1.69779e-06 14V2C1.69779e-06 1.45 0.196002 0.979002 0.588002 0.587002C0.980002 0.195002 1.45067 -0.000664969 2 1.69779e-06H18C18.55 1.69779e-06 19.021 0.196002 19.413 0.588002C19.805 0.980002 20.0007 1.45067 20 2V14C20 14.55 19.804 15.021 19.412 15.413C19.02 15.805 18.5493 16.0007 18 16H14V17C14 17.2833 13.904 17.521 13.712 17.713C13.52 17.905 13.2827 18.0007 13 18H7ZM2 14H18V2H2V14Z" fill="#5F6D7E"/>
</svg>
