<svg width="13" height="14" viewBox="0 0 13 14" fill="none" xmlns="http://www.w3.org/2000/svg">
<path d="M7.125 7.10938L8.53125 8.51562C8.64583 8.63021 8.70312 8.77354 8.70312 8.94563C8.70312 9.11771 8.64583 9.26604 8.53125 9.39062C8.40625 9.51562 8.25771 9.57812 8.08562 9.57812C7.91354 9.57812 7.76521 9.51562 7.64062 9.39062L6.0625 7.8125C6 7.75 5.95312 7.67958 5.92188 7.60125C5.89062 7.52292 5.875 7.44229 5.875 7.35938V5.125C5.875 4.94792 5.935 4.79937 6.055 4.67937C6.175 4.55937 6.32333 4.49958 6.5 4.5C6.67708 4.5 6.82563 4.56 6.94563 4.68C7.06563 4.8 7.12542 4.94833 7.125 5.125V7.10938ZM6.5 3.25C6.32292 3.25 6.17437 3.19 6.05437 3.07C5.93437 2.95 5.87458 2.80167 5.875 2.625V2H7.125V2.625C7.125 2.80208 7.065 2.95062 6.945 3.07062C6.825 3.19062 6.67667 3.25042 6.5 3.25ZM10.25 7C10.25 6.82292 10.31 6.67437 10.43 6.55437C10.55 6.43437 10.6983 6.37458 10.875 6.375H11.5V7.625H10.875C10.6979 7.625 10.5494 7.565 10.4294 7.445C10.3094 7.325 10.2496 7.17667 10.25 7ZM6.5 10.75C6.67708 10.75 6.82563 10.81 6.94563 10.93C7.06563 11.05 7.12542 11.1983 7.125 11.375V12H5.875V11.375C5.875 11.1979 5.935 11.0494 6.055 10.9294C6.175 10.8094 6.32333 10.7496 6.5 10.75ZM2.75 7C2.75 7.17708 2.69 7.32563 2.57 7.44563C2.45 7.56563 2.30167 7.62542 2.125 7.625H1.5V6.375H2.125C2.30208 6.375 2.45062 6.435 2.57062 6.555C2.69062 6.675 2.75042 6.82333 2.75 7ZM6.5 13.25C5.63542 13.25 4.82292 13.0858 4.0625 12.7575C3.30208 12.4292 2.64062 11.984 2.07813 11.4219C1.51563 10.8594 1.07042 10.1979 0.7425 9.4375C0.414583 8.67708 0.250417 7.86458 0.25 7C0.25 6.13542 0.414167 5.32292 0.7425 4.5625C1.07083 3.80208 1.51604 3.14062 2.07813 2.57813C2.64062 2.01563 3.30208 1.57042 4.0625 1.2425C4.82292 0.914583 5.63542 0.750417 6.5 0.75C7.36458 0.75 8.17708 0.914167 8.9375 1.2425C9.69792 1.57083 10.3594 2.01604 10.9219 2.57813C11.4844 3.14062 11.9298 3.80208 12.2581 4.5625C12.5865 5.32292 12.7504 6.13542 12.75 7C12.75 7.86458 12.5858 8.67708 12.2575 9.4375C11.9292 10.1979 11.484 10.8594 10.9219 11.4219C10.3594 11.9844 9.69792 12.4298 8.9375 12.7581C8.17708 13.0865 7.36458 13.2504 6.5 13.25ZM11.5 7C11.5 5.60417 11.0156 4.42187 10.0469 3.45312C9.07812 2.48437 7.89583 2 6.5 2C5.10417 2 3.92187 2.48437 2.95312 3.45312C1.98437 4.42187 1.5 5.60417 1.5 7C1.5 8.39583 1.98437 9.57812 2.95312 10.5469C3.92187 11.5156 5.10417 12 6.5 12C7.89583 12 9.07812 11.5156 10.0469 10.5469C11.0156 9.57812 11.5 8.39583 11.5 7Z" fill="white"/>
</svg>
