<svg width="13" height="14" viewBox="0 0 13 14" fill="none" xmlns="http://www.w3.org/2000/svg">
<path d="M7.125 5.75H5.875V3.25H7.125V5.75ZM7.125 7H5.875V8.25H7.125V7ZM12.75 2V9.5C12.75 9.83152 12.6183 10.1495 12.3839 10.3839C12.1495 10.6183 11.8315 10.75 11.5 10.75H2.75L0.25 13.25V2C0.25 1.66848 0.381696 1.35054 0.616116 1.11612C0.850537 0.881696 1.16848 0.75 1.5 0.75H11.5C11.8315 0.75 12.1495 0.881696 12.3839 1.11612C12.6183 1.35054 12.75 1.66848 12.75 2ZM11.5 2H1.5V10.25L2.25 9.5H11.5V2Z" fill="#F8F8F8"/>
</svg>
