<svg width="24" height="25" viewBox="0 0 24 25" fill="none" xmlns="http://www.w3.org/2000/svg">
<path d="M14.55 16.7576L11 13.2076V8.2076H13V12.3826L15.95 15.3326L14.55 16.7576ZM11 6.2076V4.2076H13V6.2076H11ZM18 13.2076V11.2076H20V13.2076H18ZM11 20.2076V18.2076H13V20.2076H11ZM4 13.2076V11.2076H6V13.2076H4ZM12 22.2076C10.6167 22.2076 9.31667 21.9449 8.1 21.4196C6.88333 20.8943 5.825 20.1819 4.925 19.2826C4.025 18.3826 3.31267 17.3243 2.788 16.1076C2.26333 14.8909 2.00067 13.5909 2 12.2076C2 10.8243 2.26267 9.52426 2.788 8.3076C3.31333 7.09093 4.02567 6.0326 4.925 5.1326C5.825 4.2326 6.88333 3.52026 8.1 2.9956C9.31667 2.47093 10.6167 2.20826 12 2.2076C13.3833 2.2076 14.6833 2.47026 15.9 2.9956C17.1167 3.52093 18.175 4.23326 19.075 5.1326C19.975 6.0326 20.6877 7.09093 21.213 8.3076C21.7383 9.52426 22.0007 10.8243 22 12.2076C22 13.5909 21.7373 14.8909 21.212 16.1076C20.6867 17.3243 19.9743 18.3826 19.075 19.2826C18.175 20.1826 17.1167 20.8953 15.9 21.4206C14.6833 21.9459 13.3833 22.2083 12 22.2076ZM12 20.2076C14.2333 20.2076 16.125 19.4326 17.675 17.8826C19.225 16.3326 20 14.4409 20 12.2076C20 9.97426 19.225 8.0826 17.675 6.5326C16.125 4.9826 14.2333 4.2076 12 4.2076C9.76667 4.2076 7.875 4.9826 6.325 6.5326C4.775 8.0826 4 9.97426 4 12.2076C4 14.4409 4.775 16.3326 6.325 17.8826C7.875 19.4326 9.76667 20.2076 12 20.2076Z" fill="#5F6D7E"/>
</svg>
